# xmcd CD database file
#
# Track frame offsets:
#	150
#	14700
#	26425
#	40550
#	48177
#	60400
#	75925
#	87025
#	101402
#	113277
#	127925
#	141675
#	150350
#	162350
#	176563
#	190413
#
# Disc length: 2676 seconds
#
# Revision: 2
# Processed by: cddbd v1.5.2PL0 Copyright (c) Steve Scherf et al.
# Submitted via: CDex 1.51
#
DISCID=b60a7210
DTITLE=Marlene Dietrich - A Touch Of Paradise
DYEAR=1900
DGENRE=
TTITLE0=Falling In Love Again
TTITLE1=Lola
TTITLE2=Give Me The Man
TTITLE3=Boys in the Back Room
TTITLE4=You've Got That Look
TTITLE5=Lili Marlene
TTITLE6=The Laziest Gal in Town
TTITLE7=Quand LÁmour Muort
TTITLE8=I've Been in Love Before
TTITLE9=Blonde Women
TTITLE10=You Do Something To Me
TTITLE11=Wenn Ich Mir Was' Wunschen Durfte
TTITLE12=This Evening Children
TTITLE13=You Go To My Head
TTITLE14=Leben Ohnie Liebe Kannst Du Nicht
TTITLE15=A Touch of Paradise
EXTD=
EXTT0=
EXTT1=
EXTT2=
EXTT3=
EXTT4=
EXTT5=
EXTT6=
EXTT7=
EXTT8=
EXTT9=
EXTT10=
EXTT11=
EXTT12=
EXTT13=
EXTT14=
EXTT15=
PLAYORDER=
